<svg xmlns="http://www.w3.org/2000/svg" xmlns:xlink="http://www.w3.org/1999/xlink" viewBox="0 0 333.61 116.15"><defs><style>.cls-1{isolation:isolate;}.cls-2{mix-blend-mode:multiply;opacity:0.24;}.cls-3{fill:none;stroke:#fff;stroke-miterlimit:10;stroke-width:1.3px;}.cls-4{fill:#fff;}.cls-5{fill:url(#Degradado_sin_nombre_5);}.cls-6{fill:url(#Degradado_sin_nombre_5-2);}</style><linearGradient id="Degradado_sin_nombre_5" x1="82.23" y1="31.84" x2="137.22" y2="127.08" gradientUnits="userSpaceOnUse"><stop offset="0" stop-color="#ed1c24"/><stop offset="1" stop-color="#f7931e"/></linearGradient><linearGradient id="Degradado_sin_nombre_5-2" x1="243.62" y1="38.86" x2="283.98" y2="108.77" xlink:href="#Degradado_sin_nombre_5"/></defs><g class="cls-1"><g id="Capa_1" data-name="Capa 1"><rect class="cls-2" x="0.13" y="0.65" width="332.32" height="114.85" rx="7.25"/><rect class="cls-3" x="0.65" y="0.65" width="332.32" height="114.85" rx="7.25"/><line class="cls-3" x1="0.13" y1="22.9" x2="332.96" y2="22.9"/><circle class="cls-4" cx="310.45" cy="12.29" r="3.3"/><circle class="cls-4" cx="318.8" cy="12.29" r="3.3"/><circle class="cls-4" cx="302.1" cy="12.29" r="3.3"/><path class="cls-5" d="M40.69,92.1H32V60.82H39.3L53.11,77.49V60.82h8.67V92.1H54.49L40.69,75.43ZM97.16,78.16V60.82H88.45V77.89q0,7.5-5.9,7.5t-5.94-7.5V60.82H67.76V78.16q0,7,3.87,10.76c2.57,2.54,6.19,3.8,10.83,3.8s8.26-1.26,10.84-3.8S97.16,82.8,97.16,78.16Zm31.09,7.1H111.9V79.54h13.9V72.93H111.9V67.66h15.77V60.82H103.15V92.1h25.1Zm27.44-24.44L147,81.2l-8.49-20.38H129L142.33,92.1H151l13.4-31.28ZM197.82,92.1h-9.21L186.16,86H172.93l-2.46,6.08h-9l13.81-31.28H184ZM183.56,79.5l-4-10-4,10Z" transform="translate(-7.54 -6.41)"/><path class="cls-4" d="M61,59.31V90.59H53.74L39.93,73.92V90.59H31.27V59.31h7.28L52.35,76V59.31Z" transform="translate(-7.54 -6.41)"/><path class="cls-4" d="M70.87,87.41Q67,83.62,67,76.65V59.31h8.84V76.38q0,7.5,6,7.5t5.89-7.5V59.31H96.4V76.65q0,7-3.86,10.76t-10.83,3.8Q74.74,91.21,70.87,87.41Z" transform="translate(-7.54 -6.41)"/><path class="cls-4" d="M127.5,83.75v6.84H102.39V59.31h24.53v6.84H111.15v5.27H125V78H111.15v5.72Z" transform="translate(-7.54 -6.41)"/><path class="cls-4" d="M163.69,59.31,150.28,90.59h-8.71L128.21,59.31h9.57l8.48,20.37,8.67-20.37Z" transform="translate(-7.54 -6.41)"/><path class="cls-4" d="M185.4,84.51H172.18l-2.46,6.08h-9L174.5,59.31h8.71l13.85,31.28h-9.2ZM182.81,78l-4-10-4,10Z" transform="translate(-7.54 -6.41)"/><path class="cls-6" d="M242,81l-6.3-20.15h-8.13l-6.62,20-6.29-20h-9.12L215.72,92.1h9.47l6.26-19,6,19h9.47l10.14-31.28H248.6ZM269,79.54h13.89V72.93H269V67.66h15.77V60.82H260.22V92.1h25.11V85.26H269Zm49.5-.82a7.67,7.67,0,0,1,1.52,4.8,7.19,7.19,0,0,1-3.31,6.34q-3.3,2.23-9.56,2.24H290.24V60.82h16q6,0,9.11,2.21a7,7,0,0,1,3.13,6,7.44,7.44,0,0,1-1.1,4,7.72,7.72,0,0,1-3.1,2.79A8.68,8.68,0,0,1,318.48,78.72ZM299,73.24h6.08q4.46,0,4.46-3t-4.46-3H299Zm12.06,9.3q0-3.18-4.64-3.18H299v6.35h7.42Q311.05,85.71,311.06,82.54Z" transform="translate(-7.54 -6.41)"/><path class="cls-4" d="M256.29,59.31,246.15,90.59h-9.47l-6-19-6.25,19H215L204.83,59.31h9.11l6.3,20,6.61-20H235l6.3,20.15,6.57-20.15Z" transform="translate(-7.54 -6.41)"/><path class="cls-4" d="M284.57,83.75v6.84H259.46V59.31H284v6.84H268.22v5.27h13.9V78h-13.9v5.72Z" transform="translate(-7.54 -6.41)"/><path class="cls-4" d="M317.72,77.2A7.72,7.72,0,0,1,319.24,82a7.21,7.21,0,0,1-3.3,6.34q-3.31,2.24-9.56,2.24H289.49V59.31h16q6,0,9.11,2.21a7,7,0,0,1,3.13,6,7.44,7.44,0,0,1-1.09,4,7.75,7.75,0,0,1-3.11,2.79A8.73,8.73,0,0,1,317.72,77.2ZM298.24,65.7v6h6.08q4.47,0,4.47-3t-4.47-3ZM310.31,81q0-3.17-4.65-3.17h-7.42V84.2h7.42Q310.31,84.2,310.31,81Z" transform="translate(-7.54 -6.41)"/></g></g></svg>